# xmcd
#
# Track frame offsets: 
#        150
#        12878
#        29429
#        37180
#        58457
#        78406
#        87186
#        116348
#        140012
#        150873
#        171048
#        191597
#
# Disc length: 2946 seconds
#
# Revision: 4
# Processed by: cddbd v1.5.2PL0 Copyright (c) Steve Scherf et al.
# Submitted via: ExactAudioCopy v0.99pb4
#
DISCID=970b800c
DTITLE=Yuri Naumov - Guitar Stories
DYEAR=1900
DGENRE=
TTITLE0=Sneaky Blues
TTITLE1=Swinging Cat
TTITLE2=Water
TTITLE3=Ping Pong Blues
TTITLE4=October
TTITLE5=Night Pub
TTITLE6=Night on the Highway
TTITLE7=To the Angel of St.Petersburg
TTITLE8=Breaking from the chase
TTITLE9=December night by the fireplace
TTITLE10=New York 5th Avenue
TTITLE11=April Night
EXTD=
EXTT0=
EXTT1=
EXTT2=
EXTT3=
EXTT4=
EXTT5=
EXTT6=
EXTT7=
EXTT8=
EXTT9=
EXTT10=
EXTT11=
PLAYORDER=
